<svg width="118" height="20" viewBox="0 0 118 20" fill="none" xmlns="http://www.w3.org/2000/svg">
<path d="M4.11208 19.7497V13.3417L0 1.85232H2.06807L5.09802 10.7134L8.58488 0H10.4846L6.01182 13.4168V19.7497H4.11208Z" fill="#FF3029"/>
<path d="M16.0876 16.8961C16.0876 17.4969 16.1117 18.0476 16.1597 18.5482C16.2078 19.0488 16.2559 19.4493 16.304 19.7497H14.7169C14.6848 19.6162 14.6528 19.4577 14.6207 19.2741C14.5887 19.0905 14.5646 18.9153 14.5486 18.7484H14.4283C14.1558 19.0989 13.8432 19.3826 13.4905 19.5995C13.1378 19.8164 12.6969 19.9249 12.1679 19.9249C11.3022 19.9249 10.6008 19.5995 10.0638 18.9487C9.5267 18.2979 9.25818 17.3467 9.25818 16.0951C9.25818 15.4276 9.34635 14.8185 9.5227 14.2678C9.69905 13.7172 9.97559 13.2541 10.3523 12.8786C10.7291 12.5031 11.214 12.2111 11.8072 12.0025C12.4004 11.7939 13.1218 11.6896 13.9714 11.6896H14.236V10.9387C14.236 10.1043 14.1037 9.50356 13.8392 9.13643C13.5747 8.7693 13.1779 8.58574 12.6488 8.58574C12.1679 8.58574 11.727 8.69838 11.3262 8.92367C10.9255 9.14895 10.5647 9.40343 10.2441 9.68712L9.88341 7.95996C10.1559 7.72634 10.5527 7.50106 11.0737 7.28412C11.5948 7.06718 12.1599 6.95871 12.7691 6.95871C13.2981 6.95871 13.771 7.02546 14.1879 7.15896C14.6047 7.29246 14.9534 7.51357 15.2339 7.82229C15.5145 8.13101 15.7269 8.53985 15.8712 9.04882C16.0155 9.55779 16.0876 10.1961 16.0876 10.9637V16.8961ZM14.236 13.1665H14.0195C13.4424 13.1665 12.9695 13.229 12.6007 13.3542C12.232 13.4794 11.9435 13.6629 11.735 13.9049C11.5266 14.1469 11.3824 14.4347 11.3022 14.7685C11.222 15.1022 11.182 15.4693 11.182 15.8698C11.182 16.6041 11.2982 17.1882 11.5306 17.622C11.7631 18.0559 12.1198 18.2729 12.6007 18.2729C12.9214 18.2729 13.23 18.1769 13.5266 17.985C13.8232 17.7931 14.0596 17.5553 14.236 17.2716V13.1665Z" fill="#2B2B2B"/>
<path d="M20.2959 19.7497H18.4202V7.1089H20.2959V8.21027H20.4161C20.4962 8.09346 20.6125 7.95996 20.7648 7.80977C20.9171 7.65959 21.0974 7.52191 21.3058 7.39676C21.5143 7.2716 21.7427 7.1673 21.9912 7.08387C22.2397 7.00043 22.5082 6.95871 22.7968 6.95871C24.416 6.95871 25.2255 7.90989 25.2255 9.81228V19.7497H23.3258V9.9875C23.3258 9.50356 23.2296 9.16981 23.0372 8.98624C22.8449 8.80268 22.5643 8.7109 22.1956 8.7109C21.7948 8.7109 21.4341 8.84023 21.1135 9.09889C20.7928 9.35754 20.5203 9.6454 20.2959 9.96247V19.7497Z" fill="#2B2B2B"/>
<path d="M30.7565 19.9249C29.5541 19.9249 28.6403 19.416 28.0151 18.398C27.3899 17.3801 27.0773 15.8865 27.0773 13.9174C27.0773 11.5811 27.458 9.83731 28.2195 8.68587C28.981 7.53442 29.971 6.95871 31.1894 6.95871C31.4779 6.95871 31.7625 7.0046 32.043 7.09638C32.3236 7.18816 32.552 7.3008 32.7284 7.4343V1.85233H34.6041V19.7497H33.2093L33.065 18.7484H32.9448C32.6723 19.0989 32.3637 19.3826 32.019 19.5995C31.6743 19.8164 31.2535 19.9249 30.7565 19.9249ZM32.7284 9.16146C32.536 8.96121 32.3316 8.81102 32.1152 8.7109C31.8988 8.61077 31.6302 8.56071 31.3096 8.56071C30.9248 8.56071 30.5922 8.69838 30.3116 8.97373C30.0311 9.24907 29.7986 9.61619 29.6143 10.0751C29.4299 10.534 29.2936 11.0597 29.2055 11.6521C29.1173 12.2445 29.0732 12.8661 29.0732 13.5169C29.0732 15.0021 29.2175 16.166 29.506 17.0088C29.7946 17.8515 30.2836 18.2729 30.9729 18.2729C31.4378 18.2729 31.8066 18.1727 32.0791 17.9725C32.3516 17.7722 32.5681 17.5469 32.7284 17.2966V9.16146Z" fill="#2B2B2B"/>
<path d="M43.4294 18.8986C43.0446 19.2157 42.6158 19.466 42.1429 19.6496C41.6699 19.8331 41.1289 19.9249 40.5197 19.9249C39.2692 19.9249 38.2833 19.4201 37.5619 18.4105C36.8404 17.4009 36.4797 15.9199 36.4797 13.9675C36.4797 12.9495 36.5479 12.015 36.6841 11.164C36.8204 10.3129 37.0368 9.57448 37.3334 8.9487C37.63 8.32291 38.0107 7.83481 38.4757 7.48437C38.9406 7.13393 39.4937 6.95871 40.1349 6.95871C40.6319 6.95871 41.0888 7.06301 41.5056 7.2716C41.9224 7.4802 42.2751 7.81812 42.5637 8.28537C42.8523 8.75262 43.0767 9.35754 43.237 10.1001C43.3973 10.8427 43.4775 11.748 43.4775 12.816V13.8924H38.4276C38.4276 15.3275 38.6159 16.4122 38.9927 17.1464C39.3694 17.8807 39.9345 18.2478 40.688 18.2478C41.2171 18.2478 41.6739 18.1519 42.0587 17.96C42.4435 17.7681 42.7561 17.5803 42.9965 17.3968L43.4294 18.8986ZM40.1349 8.56071C39.5578 8.56071 39.149 8.89863 38.9085 9.57448C38.668 10.2503 38.5157 11.1556 38.4516 12.2904H41.5537C41.5537 11.7564 41.5297 11.2599 41.4816 10.801C41.4335 10.3421 41.3573 9.94578 41.2531 9.61203C41.1489 9.27828 41.0046 9.01962 40.8203 8.83606C40.6359 8.65249 40.4075 8.56071 40.1349 8.56071Z" fill="#2B2B2B"/>
<path d="M51.6295 7.13391L49.369 13.0413L51.894 19.7497H49.9462L48.0705 14.5432L46.2429 19.7497H44.3912L46.9162 13.2165L44.6317 7.13391H46.5795L48.1426 11.7146L49.8019 7.13391H51.6295Z" fill="#2B2B2B"/>
<path d="M62.4989 14.1928H58.4349L57.3287 19.7497H56.2706L59.9258 1.85233H61.1763L64.8074 19.7497H63.6291L62.4989 14.1928ZM58.6273 13.1665H62.3065L60.8156 5.78224C60.7354 5.39842 60.6713 4.98124 60.6232 4.53067C60.5751 4.08011 60.543 3.70464 60.527 3.40427H60.4789C60.4468 3.70464 60.3947 4.06759 60.3226 4.49313C60.2505 4.91866 60.1743 5.34002 60.0942 5.75721L58.6273 13.1665Z" fill="#2B2B2B"/>
<path d="M70.6034 8.28537C69.2405 8.33543 68.2785 9.23655 67.7173 10.9887V19.7497H66.5869V7.13393H67.6211L67.6692 9.66209H67.7414C67.8376 9.36172 67.9698 9.06134 68.1382 8.76097C68.3066 8.46059 68.511 8.18942 68.7515 7.94745C68.992 7.70548 69.2686 7.50523 69.5813 7.3467C69.8939 7.18817 70.2346 7.09221 70.6034 7.05884V8.28537Z" fill="#2B2B2B"/>
<path d="M75.4844 18.9737C75.8692 18.9737 76.2098 18.907 76.5064 18.7735C76.803 18.64 77.0555 18.4814 77.2639 18.2979C77.5044 18.1143 77.7128 17.889 77.8891 17.622L78.2498 18.5982C78.0735 18.8653 77.8491 19.0989 77.5765 19.2991C77.3521 19.4827 77.0595 19.6454 76.6988 19.7872C76.3381 19.9291 75.9253 20 75.4604 20C74.242 20 73.3001 19.4285 72.6348 18.2854C71.9695 17.1423 71.6368 15.5361 71.6368 13.4668C71.6368 11.3809 71.9655 9.76221 72.6228 8.61076C73.2801 7.45932 74.2339 6.88361 75.4844 6.88361C76.1096 6.88361 76.6387 6.99625 77.0715 7.22153C77.5044 7.44681 77.8571 7.72632 78.1296 8.06008L77.817 9.31164C77.5445 8.92783 77.2158 8.59408 76.8311 8.31039C76.4463 8.0267 75.9974 7.88486 75.4844 7.88486C74.5546 7.88486 73.8692 8.36879 73.4284 9.33667C72.9875 10.3046 72.7671 11.6813 72.7671 13.4668C72.7671 15.2023 72.9835 16.554 73.4163 17.5219C73.8492 18.4898 74.5385 18.9737 75.4844 18.9737Z" fill="#2B2B2B"/>
<path d="M85.1514 19.7497C85.1033 19.5828 85.0512 19.37 84.995 19.1114C84.9389 18.8527 84.8949 18.4981 84.8628 18.0476C84.5742 18.6483 84.2135 19.1239 83.7807 19.4743C83.3478 19.8248 82.8268 20 82.2176 20C81.4 20 80.7347 19.6788 80.2217 19.0363C79.7087 18.3938 79.4521 17.4969 79.4521 16.3454C79.4521 14.9937 79.7968 13.9716 80.4862 13.2791C81.1755 12.5866 82.1775 12.2403 83.4921 12.2403H84.8147V10.6633C84.8147 9.69545 84.6464 8.99458 84.3097 8.5607C83.973 8.12682 83.468 7.90989 82.7947 7.90989C82.2817 7.90989 81.8008 8.03087 81.3519 8.27284C80.903 8.51481 80.5343 8.85273 80.2457 9.28661L79.9331 8.1602C80.1736 7.82645 80.5383 7.53025 81.0272 7.27159C81.5162 7.01293 82.1054 6.88361 82.7947 6.88361C83.8047 6.88361 84.5782 7.17981 85.1153 7.77222C85.6523 8.36463 85.9209 9.2866 85.9209 10.5382V17.4218C85.9209 17.8557 85.9449 18.2937 85.993 18.7359C86.0411 19.1781 86.1052 19.5161 86.1854 19.7497H85.1514ZM82.4581 19.0488C83.0192 19.0488 83.4961 18.8068 83.8889 18.3229C84.2816 17.839 84.5903 17.2549 84.8147 16.5707V13.0914H83.5161C82.5062 13.0914 81.7607 13.3417 81.2797 13.8423C80.7988 14.3429 80.5583 15.1439 80.5583 16.2453C80.5583 17.1464 80.7307 17.839 81.0753 18.3229C81.42 18.8068 81.8809 19.0488 82.4581 19.0488Z" fill="#2B2B2B"/>
<path d="M92.3656 7.88486C91.7564 7.88486 91.2274 8.12682 90.7785 8.61076C90.3296 9.09471 89.9529 9.73717 89.6483 10.5382V19.7497H88.5181V7.13392H89.5521L89.6002 9.21152H89.6483C89.7284 8.97789 89.8527 8.72758 90.021 8.46058C90.1894 8.19358 90.3938 7.94326 90.6342 7.70964C90.8747 7.47601 91.1552 7.27994 91.4759 7.1214C91.7965 6.96287 92.1652 6.88361 92.5821 6.88361C93.3997 6.88361 94.0289 7.14226 94.4698 7.65958C94.9106 8.17689 95.1311 8.93617 95.1311 9.93742V19.7497H94.0008V10.0876C94.0008 8.6191 93.4558 7.88486 92.3656 7.88486Z" fill="#2B2B2B"/>
<path d="M100.349 18.9987C100.958 18.9987 101.484 18.7568 101.924 18.2728C102.365 17.7889 102.738 17.1464 103.043 16.3454V7.13391H104.173V19.7497H103.139L103.091 17.6721H103.043C102.962 17.9057 102.842 18.156 102.682 18.423C102.522 18.69 102.325 18.9403 102.093 19.174C101.86 19.4076 101.584 19.6037 101.263 19.7622C100.942 19.9207 100.574 20 100.157 20C99.3393 20 98.7141 19.7038 98.2812 19.1114C97.8484 18.519 97.632 17.6554 97.632 16.5206V7.13391H98.7622V16.3705C98.7622 18.1227 99.2912 18.9987 100.349 18.9987Z" fill="#2B2B2B"/>
<path d="M107.996 19.7497H106.866V7.13392H107.9L107.948 9.0363H107.996C108.093 8.83605 108.217 8.61077 108.369 8.36045C108.521 8.11014 108.71 7.87651 108.934 7.65958C109.159 7.44264 109.419 7.25908 109.716 7.10889C110.012 6.9587 110.345 6.88361 110.714 6.88361C111.98 6.88361 112.726 7.57613 112.95 8.9612H112.974C113.054 8.79433 113.17 8.58991 113.323 8.34794C113.475 8.10597 113.667 7.87651 113.9 7.65958C114.132 7.44264 114.397 7.25908 114.693 7.10889C114.99 6.9587 115.323 6.88361 115.691 6.88361C116.413 6.88361 116.978 7.12557 117.387 7.60951C117.796 8.09345 118 8.81101 118 9.7622V19.7497H116.87V9.91239C116.87 9.21151 116.766 8.69838 116.557 8.37297C116.349 8.04756 116.004 7.88486 115.523 7.88486C114.962 7.88486 114.473 8.10597 114.056 8.54819C113.639 8.99041 113.287 9.55361 112.998 10.2378V19.7497H111.868V9.91239C111.868 9.21151 111.768 8.69838 111.567 8.37297C111.367 8.04756 111.026 7.88486 110.545 7.88486C109.984 7.88486 109.495 8.11014 109.078 8.5607C108.662 9.01127 108.301 9.61201 107.996 10.363V19.7497Z" fill="#2B2B2B"/>
</svg>
